<svg viewBox="0 0 50 50" xml:space="preserve" xmlns="http://www.w3.org/2000/svg"><path fill="none" d="M0 0h50v50H0z"></path><circle cx="25" cy="24" fill="none" r="12" stroke="#000000" stroke-linecap="round" stroke-miterlimit="10" stroke-width="2" class="stroke-000000"></circle><circle cx="25" cy="24" fill="none" r="8" stroke="#000000" stroke-linecap="round" stroke-miterlimit="10" stroke-width="2" class="stroke-000000"></circle><path d="M47 10H37c-1.469 0-2.484-4-4-4H17c-1.516 0-2.531 4-4 4H3a2 2 0 0 0-2 2v27a2 2 0 0 0 2 2h44a2 2 0 0 0 2-2V12a2 2 0 0 0-2-2z" fill="none" stroke="#000000" stroke-linecap="round" stroke-miterlimit="10" stroke-width="2" class="stroke-000000"></path><path d="M9 14H8a2 2 0 0 0 0 4h1a2 2 0 0 0 0-4z" fill="#000000" class="fill-000000"></path></svg>